<svg width="261" height="42" viewBox="0 0 261 42" fill="none" xmlns="http://www.w3.org/2000/svg">
<path d="M199.488 33.5898C197.041 33.5898 194.862 33.0741 192.953 32.0426C191.043 30.9817 189.536 29.5378 188.432 27.7107C187.328 25.8836 186.776 23.806 186.776 21.4779C186.776 19.1204 187.328 17.0428 188.432 15.2452C189.536 13.4181 191.043 11.9888 192.953 10.9574C194.862 9.92599 197.041 9.41028 199.488 9.41028C201.965 9.41028 204.158 9.92599 206.068 10.9574C208.007 11.9888 209.514 13.4034 210.589 15.201C211.693 16.9986 212.245 19.0909 212.245 21.4779C212.245 23.806 211.693 25.8836 210.589 27.7107C209.514 29.5378 208.007 30.9817 206.068 32.0426C204.158 33.0741 201.965 33.5898 199.488 33.5898ZM199.488 28.86C200.861 28.86 202.084 28.5653 203.158 27.9759C204.233 27.3865 205.068 26.5319 205.665 25.4121C206.292 24.2922 206.605 22.9809 206.605 21.4779C206.605 19.9455 206.292 18.6341 205.665 17.5438C205.068 16.424 204.233 15.5693 203.158 14.98C202.084 14.3906 200.875 14.0959 199.533 14.0959C198.16 14.0959 196.936 14.3906 195.862 14.98C194.818 15.5693 193.982 16.424 193.355 17.5438C192.729 18.6341 192.415 19.9455 192.415 21.4779C192.415 22.9809 192.729 24.2922 193.355 25.4121C193.982 26.5319 194.818 27.3865 195.862 27.9759C196.936 28.5653 198.145 28.86 199.488 28.86Z" fill="#5F6AFF"/>
<path d="M174.041 33.5897V1H180.408V33.5897H174.041Z" fill="#5F6AFF"/>
<path d="M153.693 33.5897V9.04954C153.693 6.61292 154.447 4.66943 155.954 3.21906C157.492 1.73969 159.676 1 162.506 1C163.521 1 164.474 1.10153 165.366 1.30458C166.289 1.50763 167.058 1.82671 167.673 2.26182L166.105 6.35185C165.674 6.03277 165.182 5.80071 164.628 5.65568C164.075 5.48163 163.506 5.39461 162.921 5.39461C161.721 5.39461 160.814 5.71369 160.199 6.35185C159.584 6.96101 159.276 7.88924 159.276 9.13656V11.7472L159.461 14.1838V33.5897H153.693ZM149.633 14.88V10.5289H166.059V14.88H149.633Z" fill="#5F6AFF"/>
<path d="M126.252 42C125.1 42 123.949 41.8141 122.797 41.4422C121.646 41.0703 120.686 40.5554 119.918 39.8975L122.133 35.9498C122.694 36.4361 123.329 36.8223 124.037 37.1083C124.746 37.3944 125.47 37.5374 126.208 37.5374C127.212 37.5374 128.024 37.2943 128.644 36.808C129.264 36.3217 129.84 35.5064 130.371 34.3621L131.744 31.3585L132.187 30.7148L141.134 10.4615H146.449L135.376 35.2203C134.638 36.9367 133.811 38.2955 132.896 39.2967C132.01 40.2979 131.006 40.9988 129.884 41.3993C128.791 41.7998 127.581 42 126.252 42ZM131.124 34.1905L120.45 10.4615H126.208L134.889 30.2428L131.124 34.1905Z" fill="#5F6AFF"/>
<path d="M105.623 33.7013C103.676 33.7013 101.894 33.2572 100.277 32.369C98.6902 31.4809 97.4174 30.1487 96.4591 28.3723C95.5308 26.5664 95.0666 24.2868 95.0666 21.5336C95.0666 18.7507 95.5158 16.4711 96.4142 14.6948C97.3426 12.9185 98.6003 11.6011 100.187 10.7425C101.775 9.85436 103.586 9.41028 105.623 9.41028C107.989 9.41028 110.07 9.91356 111.867 10.9201C113.693 11.9267 115.131 13.333 116.179 15.1389C117.257 16.9448 117.796 19.0763 117.796 21.5336C117.796 23.9908 117.257 26.1372 116.179 27.9727C115.131 29.7786 113.693 31.1848 111.867 32.1914C110.07 33.198 107.989 33.7013 105.623 33.7013ZM92.3265 42L92.3265 9.67672H97.672V15.2721L97.4923 21.578L97.9415 27.8839L97.9415 42H92.3265ZM104.994 28.9496C106.341 28.9496 107.539 28.6536 108.587 28.0615C109.665 27.4694 110.519 26.6108 111.148 25.4858C111.777 24.3609 112.091 23.0434 112.091 21.5336C112.091 19.9941 111.777 18.6767 111.148 17.5813C110.519 16.4563 109.665 15.5977 108.587 15.0056C107.539 14.4135 106.341 14.1175 104.994 14.1175C103.646 14.1175 102.433 14.4135 101.355 15.0056C100.277 15.5977 99.4238 16.4563 98.795 17.5813C98.1661 18.6767 97.8517 19.9941 97.8517 21.5336C97.8517 23.0434 98.1661 24.3609 98.795 25.4858C99.4238 26.6108 100.277 27.4694 101.355 28.0615C102.433 28.6536 103.646 28.9496 104.994 28.9496Z" fill="#5F6AFF"/>
<path d="M73.2319 33.7013C71.3665 33.7013 69.659 33.2572 68.1092 32.369C66.5882 31.4809 65.3685 30.1487 64.4502 28.3723C63.5605 26.5664 63.1157 24.2868 63.1157 21.5336C63.1157 18.7507 63.5461 16.4711 64.4071 14.6948C65.2968 12.9185 66.5021 11.6011 68.0231 10.7425C69.5442 9.85436 71.2804 9.41028 73.2319 9.41028C75.4991 9.41028 77.4937 9.91356 79.2156 10.9201C80.9662 11.9267 82.3437 13.333 83.3482 15.1389C84.3813 16.9448 84.8979 19.0763 84.8979 21.5336C84.8979 23.9908 84.3813 26.1372 83.3482 27.9727C82.3437 29.7786 80.9662 31.1848 79.2156 32.1914C77.4937 33.198 75.4991 33.7013 73.2319 33.7013ZM60.4897 42L60.4897 9.67672H65.6124V15.2721L65.4403 21.578L65.8707 27.8839V42H60.4897ZM72.6293 28.9496C73.9207 28.9496 75.0686 28.6536 76.0731 28.0615C77.1062 27.4694 77.9241 26.6108 78.5268 25.4858C79.1295 24.3609 79.4308 23.0434 79.4308 21.5336C79.4308 19.9941 79.1295 18.6767 78.5268 17.5813C77.9241 16.4563 77.1062 15.5977 76.0731 15.0056C75.0686 14.4135 73.9207 14.1175 72.6293 14.1175C71.3378 14.1175 70.1755 14.4135 69.1424 15.0056C68.1092 15.5977 67.2913 16.4563 66.6886 17.5813C66.086 18.6767 65.7846 19.9941 65.7846 21.5336C65.7846 23.0434 66.086 24.3609 66.6886 25.4858C67.2913 26.6108 68.1092 27.4694 69.1424 28.0615C70.1755 28.6536 71.3378 28.9496 72.6293 28.9496Z" fill="#5F6AFF"/>
<path d="M45.7748 33.2803V28.5063L45.4685 27.4896V19.1351C45.4685 17.5143 44.9871 16.2619 44.0244 15.3778C43.0616 14.4642 41.6029 14.0075 39.6482 14.0075C38.3353 14.0075 37.037 14.2138 35.7534 14.6263C34.4989 15.0389 33.434 15.6135 32.5588 16.3503L30.4144 12.3277C31.6689 11.3552 33.1568 10.6333 34.8781 10.1617C36.6286 9.66077 38.4374 9.41028 40.3046 9.41028C43.6888 9.41028 46.3 10.2354 48.138 11.8857C50.0051 13.5065 50.9387 16.0261 50.9387 19.4445V33.2803H45.7748ZM38.4228 33.5898C36.6724 33.5898 35.1407 33.2951 33.8278 32.7057C32.515 32.0868 31.4939 31.247 30.7645 30.1861C30.0643 29.0957 29.7142 27.8727 29.7142 26.5172C29.7142 25.191 30.0206 23.9975 30.6332 22.9366C31.2751 21.8758 32.3108 21.0359 33.7403 20.417C35.1699 19.7982 37.0662 19.4887 39.4294 19.4887H46.2124V23.1577H39.8232C37.956 23.1577 36.7015 23.4671 36.0597 24.0859C35.4179 24.6753 35.0969 25.4121 35.0969 26.2961C35.0969 27.2981 35.4908 28.0938 36.2785 28.6831C37.0662 29.2725 38.1603 29.5672 39.5606 29.5672C40.9027 29.5672 42.0988 29.2578 43.1491 28.6389C44.2286 28.0201 45.0017 27.1065 45.4685 25.8983L46.3875 29.2136C45.8623 30.5986 44.9142 31.6743 43.543 32.4405C42.2009 33.2067 40.4942 33.5898 38.4228 33.5898Z" fill="#5F6AFF"/>
<path d="M12.8376 9.87214C14.6453 9.87214 16.2553 10.2382 17.6676 10.9702C19.1081 11.7022 20.2379 12.8295 21.057 14.3521C21.8762 15.8455 22.2857 17.778 22.2857 20.1498V33.5897H16.9897V20.8525C16.9897 18.7736 16.5095 17.2217 15.5492 16.1968C14.6171 15.172 13.3036 14.6596 11.6089 14.6596C10.3661 14.6596 9.26453 14.9231 8.30418 15.4502C7.34384 15.9772 6.59533 16.7678 6.05866 17.8219C5.55024 18.8468 5.29603 20.1498 5.29603 21.7309V33.5897H0V1H5.29603V16.4604L4.15209 14.5278C4.94297 13.0345 6.08691 11.8925 7.58392 11.1019C9.10918 10.2821 10.8604 9.87214 12.8376 9.87214Z" fill="#5F6AFF"/>
<path d="M224.557 33.6842L224.62 33.8397H224.788H229.206H229.376L229.438 33.6811L236.643 15.3341L243.762 33.6802L243.824 33.8397H243.995H248.412H248.589L248.648 33.6735L260.236 1.08375L260.354 0.75H260H255.871H255.694L255.635 0.916799L246.161 27.7595L238.899 8.52853L238.838 8.36685H238.665H234.776H234.604L234.542 8.5268L227.044 27.9453L222.153 15.7641L222.09 15.6073H221.921H217.551H217.179L217.32 15.9517L224.557 33.6842Z" fill="#5F6AFF" stroke="#5F6AFF" stroke-width="0.5"/>
</svg>

