<svg width="260" height="44" viewBox="0 0 260 44" fill="none" xmlns="http://www.w3.org/2000/svg">
<path d="M226.085 33.8997L219.199 16.5973H223.357L229.237 31.6154H227.273L235.588 9.53253H239.289L247.421 31.6154H245.502L256.071 0.333801H260L248.563 33.8997H244.36L236.73 13.7357H238.009L230.288 33.8997H226.085Z" fill="#FF9F1C"/>
<path d="M203.009 34.1738C200.572 34.1738 198.409 33.6408 196.521 32.5748C194.633 31.5087 193.14 30.0467 192.044 28.1888C190.947 26.3004 190.399 24.1684 190.399 21.7927C190.399 19.3865 190.947 17.2544 192.044 15.3965C193.14 13.5386 194.633 12.0918 196.521 11.0562C198.409 9.99021 200.572 9.4572 203.009 9.4572C205.415 9.4572 207.562 9.99021 209.45 11.0562C211.369 12.0918 212.862 13.5386 213.928 15.3965C215.024 17.224 215.572 19.356 215.572 21.7927C215.572 24.1988 215.024 26.3309 213.928 28.1888C212.862 30.0467 211.369 31.5087 209.45 32.5748C207.562 33.6408 205.415 34.1738 203.009 34.1738ZM203.009 30.3361C204.562 30.3361 205.948 29.9858 207.166 29.2853C208.415 28.5848 209.389 27.5949 210.09 26.3157C210.791 25.006 211.141 23.4983 211.141 21.7927C211.141 20.0566 210.791 18.5641 210.09 17.3153C209.389 16.0361 208.415 15.0462 207.166 14.3457C205.948 13.6452 204.562 13.2949 203.009 13.2949C201.455 13.2949 200.069 13.6452 198.851 14.3457C197.633 15.0462 196.658 16.0361 195.927 17.3153C195.196 18.5641 194.831 20.0566 194.831 21.7927C194.831 23.4983 195.196 25.006 195.927 26.3157C196.658 27.5949 197.633 28.5848 198.851 29.2853C200.069 29.9858 201.455 30.3361 203.009 30.3361Z" fill="#5F6AFF"/>
<path d="M179.877 33.8997V0H184.263V33.8997H179.877Z" fill="#5F6AFF"/>
<path d="M155.628 17.0412H172.121V20.9703H155.628V17.0412ZM156.085 33.8997H151.516V1.91888H174.086V5.89364H156.085V33.8997Z" fill="#5F6AFF"/>
<path d="M126.407 43.037C125.249 43.037 124.122 42.839 123.026 42.4431C121.929 42.0776 120.985 41.5293 120.193 40.7983L122.067 37.5089C122.676 38.0876 123.346 38.5292 124.077 38.8338C124.808 39.1384 125.584 39.2907 126.407 39.2907C127.473 39.2907 128.356 39.0166 129.057 38.4683C129.757 37.9201 130.412 36.9454 131.021 35.5444L132.529 32.2092L132.986 31.661L142.489 9.68559H146.783L135.042 36.321C134.341 38.0267 133.549 39.3668 132.666 40.3415C131.813 41.3161 130.869 42.0014 129.833 42.3974C128.798 42.8238 127.656 43.037 126.407 43.037ZM132.163 34.6763L121.107 9.68559H125.676L135.087 31.2498L132.163 34.6763Z" fill="#5F6AFF"/>
<path d="M107.721 34.1738C105.711 34.1738 103.868 33.7169 102.193 32.8032C100.548 31.859 99.2236 30.4732 98.2184 28.6457C97.2438 26.8182 96.7565 24.5339 96.7565 21.7927C96.7565 19.0514 97.2286 16.7671 98.1728 14.9396C99.1474 13.1121 100.457 11.7415 102.102 10.8278C103.777 9.91407 105.65 9.4572 107.721 9.4572C110.097 9.4572 112.199 9.97498 114.026 11.0106C115.854 12.0461 117.3 13.4929 118.366 15.3508C119.432 17.1783 119.965 19.3256 119.965 21.7927C119.965 24.2597 119.432 26.4223 118.366 28.2802C117.3 30.1381 115.854 31.5849 114.026 32.6204C112.199 33.656 110.097 34.1738 107.721 34.1738ZM94.8833 42.7629V9.68563H99.0865V16.2189L98.8124 21.8383L99.2692 27.4578V42.7629H94.8833ZM107.356 30.3361C108.909 30.3361 110.295 29.9858 111.513 29.2853C112.762 28.5848 113.737 27.5949 114.437 26.3157C115.168 25.006 115.534 23.4983 115.534 21.7927C115.534 20.0566 115.168 18.5641 114.437 17.3153C113.737 16.0361 112.762 15.0462 111.513 14.3457C110.295 13.6452 108.909 13.2949 107.356 13.2949C105.833 13.2949 104.447 13.6452 103.198 14.3457C101.98 15.0462 101.005 16.0361 100.274 17.3153C99.5738 18.5641 99.2236 20.0566 99.2236 21.7927C99.2236 23.4983 99.5738 25.006 100.274 26.3157C101.005 27.5949 101.98 28.5848 103.198 29.2853C104.447 29.9858 105.833 30.3361 107.356 30.3361Z" fill="#5F6AFF"/>
<path d="M76.5795 34.1738C74.5692 34.1738 72.7265 33.7169 71.0514 32.8032C69.4066 31.859 68.0817 30.4732 67.0766 28.6457C66.1019 26.8182 65.6146 24.5339 65.6146 21.7927C65.6146 19.0514 66.0867 16.7671 67.0309 14.9396C68.0056 13.1121 69.3153 11.7415 70.96 10.8278C72.6352 9.91407 74.5083 9.4572 76.5795 9.4572C78.9552 9.4572 81.0568 9.97498 82.8843 11.0106C84.7117 12.0461 86.1585 13.4929 87.2245 15.3508C88.2905 17.1783 88.8235 19.3256 88.8235 21.7927C88.8235 24.2597 88.2905 26.4223 87.2245 28.2802C86.1585 30.1381 84.7117 31.5849 82.8843 32.6204C81.0568 33.656 78.9552 34.1738 76.5795 34.1738ZM63.7415 42.7629V9.68563H67.9446V16.2189L67.6705 21.8383L68.1274 27.4578V42.7629H63.7415ZM76.214 30.3361C77.7673 30.3361 79.1532 29.9858 80.3715 29.2853C81.6202 28.5848 82.5949 27.5949 83.2954 26.3157C84.0264 25.006 84.3919 23.4983 84.3919 21.7927C84.3919 20.0566 84.0264 18.5641 83.2954 17.3153C82.5949 16.0361 81.6202 15.0462 80.3715 14.3457C79.1532 13.6452 77.7673 13.2949 76.214 13.2949C74.6911 13.2949 73.3052 13.6452 72.0565 14.3457C70.8381 15.0462 69.8635 16.0361 69.1325 17.3153C68.432 18.5641 68.0817 20.0566 68.0817 21.7927C68.0817 23.4983 68.432 25.006 69.1325 26.3157C69.8635 27.5949 70.8381 28.5848 72.0565 29.2853C73.3052 29.9858 74.6911 30.3361 76.214 30.3361Z" fill="#5F6AFF"/>
<path d="M51.4671 33.8997V28.7827L51.2387 27.8233V19.0971C51.2387 17.2392 50.6905 15.8077 49.594 14.8026C48.5279 13.767 46.9137 13.2492 44.7512 13.2492C43.3196 13.2492 41.9186 13.4929 40.548 13.9802C39.1774 14.4371 38.02 15.0615 37.0758 15.8534L35.2483 12.5639C36.4971 11.5588 37.9895 10.7973 39.7256 10.2796C41.4922 9.73132 43.3349 9.4572 45.2537 9.4572C48.5736 9.4572 51.1321 10.2643 52.9291 11.8786C54.7261 13.4929 55.6246 15.96 55.6246 19.2799V33.8997H51.4671ZM43.5176 34.1738C41.7206 34.1738 40.1368 33.8692 38.7662 33.2601C37.426 32.6509 36.3905 31.8133 35.6595 30.7473C34.9285 29.6508 34.563 28.4173 34.563 27.0466C34.563 25.737 34.8676 24.5491 35.4767 23.4831C36.1163 22.417 37.1367 21.5642 38.5377 20.9246C39.9693 20.285 41.8881 19.9652 44.2943 19.9652H51.9697V23.1176H44.477C42.2841 23.1176 40.8069 23.4831 40.0454 24.2141C39.284 24.945 38.9032 25.8283 38.9032 26.8639C38.9032 28.0518 39.3753 29.0112 40.3195 29.7422C41.2637 30.4427 42.5734 30.793 44.2486 30.793C45.8933 30.793 47.3249 30.4275 48.5432 29.6965C49.7919 28.9655 50.6905 27.8995 51.2387 26.4984L52.1067 29.5137C51.528 30.9453 50.5077 32.0874 49.0457 32.9403C47.5837 33.7626 45.741 34.1738 43.5176 34.1738Z" fill="#5F6AFF"/>
<path d="M22.9348 1.91888H27.5035V33.8997H22.9348V1.91888ZM4.56869 33.8997H0V1.91888H4.56869V33.8997ZM23.346 19.6454H4.11182V15.6706H23.346V19.6454Z" fill="#5F6AFF"/>
</svg>
