<svg width="16" height="16" viewBox="0 0 16 16" fill="none" xmlns="http://www.w3.org/2000/svg">
<g id="Huge-icon/interface/outline/user">
<path id="Vector" d="M9.91671 4.66667C9.91671 5.72521 9.05859 6.58333 8.00004 6.58333V8.08333C9.88701 8.08333 11.4167 6.55364 11.4167 4.66667H9.91671ZM8.00004 6.58333C6.94149 6.58333 6.08337 5.72521 6.08337 4.66667H4.58337C4.58337 6.55364 6.11307 8.08333 8.00004 8.08333V6.58333ZM6.08337 4.66667C6.08337 3.60812 6.94149 2.75 8.00004 2.75V1.25C6.11307 1.25 4.58337 2.77969 4.58337 4.66667H6.08337ZM8.00004 2.75C9.05859 2.75 9.91671 3.60812 9.91671 4.66667H11.4167C11.4167 2.77969 9.88701 1.25 8.00004 1.25V2.75ZM11.9167 11.6667C11.9167 11.8739 11.7292 12.2634 10.9645 12.6458C10.2446 13.0057 9.19752 13.25 8.00004 13.25V14.75C9.37989 14.75 10.6662 14.4719 11.6353 13.9874C12.5595 13.5253 13.4167 12.7481 13.4167 11.6667H11.9167ZM8.00004 13.25C6.80256 13.25 5.75553 13.0057 5.03562 12.6458C4.27085 12.2634 4.08337 11.8739 4.08337 11.6667H2.58337C2.58337 12.7481 3.44057 13.5253 4.3648 13.9874C5.33389 14.4719 6.62019 14.75 8.00004 14.75V13.25ZM4.08337 11.6667C4.08337 11.4595 4.27085 11.07 5.03562 10.6876C5.75553 10.3276 6.80256 10.0833 8.00004 10.0833V8.58333C6.62019 8.58333 5.33389 8.86139 4.3648 9.34593C3.44057 9.80805 2.58337 10.5852 2.58337 11.6667H4.08337ZM8.00004 10.0833C9.19752 10.0833 10.2446 10.3276 10.9645 10.6876C11.7292 11.07 11.9167 11.4595 11.9167 11.6667H13.4167C13.4167 10.5852 12.5595 9.80805 11.6353 9.34593C10.6662 8.86139 9.37989 8.58333 8.00004 8.58333V10.0833Z" fill="#28303F"/>
</g>
</svg>
