<svg width="155" height="26" viewBox="0 0 155 26" fill="none" xmlns="http://www.w3.org/2000/svg">
<path d="M118.158 20.8718C116.709 20.8718 115.419 20.5573 114.287 19.9284C113.156 19.2815 112.263 18.4011 111.61 17.287C110.956 16.1729 110.629 14.9061 110.629 13.4865C110.629 12.049 110.956 10.7822 111.61 9.68607C112.263 8.57199 113.156 7.7005 114.287 7.07158C115.419 6.44266 116.709 6.1282 118.158 6.1282C119.625 6.1282 120.924 6.44266 122.056 7.07158C123.204 7.7005 124.097 8.56301 124.733 9.65912C125.387 10.7552 125.714 12.031 125.714 13.4865C125.714 14.9061 125.387 16.1729 124.733 17.287C124.097 18.4011 123.204 19.2815 122.056 19.9284C120.924 20.5573 119.625 20.8718 118.158 20.8718ZM118.158 17.9878C118.971 17.9878 119.696 17.8081 120.332 17.4487C120.968 17.0893 121.463 16.5682 121.817 15.8854C122.188 15.2026 122.374 14.4029 122.374 13.4865C122.374 12.5521 122.188 11.7525 121.817 11.0877C121.463 10.4048 120.968 9.88373 120.332 9.52435C119.696 9.16497 118.98 8.98528 118.185 8.98528C117.372 8.98528 116.647 9.16497 116.011 9.52435C115.392 9.88373 114.897 10.4048 114.526 11.0877C114.155 11.7525 113.969 12.5521 113.969 13.4865C113.969 14.4029 114.155 15.2026 114.526 15.8854C114.897 16.5682 115.392 17.0893 116.011 17.4487C116.647 17.8081 117.363 17.9878 118.158 17.9878Z" fill="#5F6AFF"/>
<path d="M103.086 20.8718V1H106.857V20.8718H103.086Z" fill="#5F6AFF"/>
<path d="M91.0335 20.8718V5.90825C91.0335 4.42251 91.4799 3.23746 92.3726 2.35309C93.2836 1.45103 94.5772 1 96.2534 1C96.8546 1 97.4194 1.06191 97.9478 1.18572C98.4944 1.30953 98.9499 1.50409 99.3143 1.7694L98.3851 4.26332C98.13 4.06876 97.8385 3.92726 97.5105 3.83883C97.1826 3.7327 96.8455 3.67964 96.4993 3.67964C95.7888 3.67964 95.2513 3.8742 94.8869 4.26332C94.5225 4.63476 94.3403 5.20076 94.3403 5.96131V7.55318L94.4497 9.03892V20.8718H91.0335ZM88.6285 9.46342V6.81031H98.3577V9.46342H88.6285Z" fill="#5F6AFF"/>
<path d="M74.78 26C74.098 26 73.4159 25.8866 72.7338 25.6599C72.0517 25.4331 71.4833 25.1191 71.0286 24.7179L72.3403 22.3108C72.6726 22.6074 73.0486 22.8428 73.4683 23.0173C73.8881 23.1917 74.3166 23.2789 74.7538 23.2789C75.3485 23.2789 75.8294 23.1306 76.1967 22.8341C76.564 22.5376 76.905 22.0405 77.2198 21.3427L78.0331 19.5112L78.2954 19.1188L83.5947 6.76923H86.7429L80.1843 21.866C79.7471 22.9126 79.2574 23.7411 78.7152 24.3516C78.1905 24.9621 77.5959 25.3895 76.9313 25.6337C76.2841 25.8779 75.5671 26 74.78 26ZM77.6658 21.2381L71.3434 6.76923H74.7538L79.8957 18.831L77.6658 21.2381Z" fill="#5F6AFF"/>
<path d="M62.5611 20.9398C61.4082 20.9398 60.3528 20.669 59.395 20.1274C58.4549 19.5859 57.701 18.7736 57.1334 17.6904C56.5836 16.5893 56.3087 15.1993 56.3087 13.5205C56.3087 11.8236 56.5747 10.4336 57.1068 9.35047C57.6567 8.26735 58.4017 7.46404 59.3418 6.94054C60.2818 6.39898 61.355 6.1282 62.5611 6.1282C63.9624 6.1282 65.1951 6.43509 66.2594 7.04885C67.3414 7.66261 68.1928 8.52008 68.8136 9.62125C69.4521 10.7224 69.7714 12.0221 69.7714 13.5205C69.7714 15.0188 69.4521 16.3275 68.8136 17.4467C68.1928 18.5479 67.3414 19.4054 66.2594 20.0191C65.1951 20.6329 63.9624 20.9398 62.5611 20.9398ZM54.6857 26L54.6857 6.29067H57.8518V9.70248L57.7454 13.5475L58.0114 17.3926L58.0114 26H54.6857ZM62.1886 18.0425C62.9868 18.0425 63.6963 17.8619 64.3171 17.5009C64.9557 17.1399 65.4612 16.6164 65.8337 15.9304C66.2062 15.2444 66.3924 14.4411 66.3924 13.5205C66.3924 12.5818 66.2062 11.7784 65.8337 11.1105C65.4612 10.4246 64.9557 9.90105 64.3171 9.54001C63.6963 9.17897 62.9868 8.99846 62.1886 8.99846C61.3904 8.99846 60.6721 9.17897 60.0335 9.54001C59.395 9.90105 58.8895 10.4246 58.517 11.1105C58.1445 11.7784 57.9582 12.5818 57.9582 13.5205C57.9582 14.4411 58.1445 15.2444 58.517 15.9304C58.8895 16.6164 59.395 17.1399 60.0335 17.5009C60.6721 17.8619 61.3904 18.0425 62.1886 18.0425Z" fill="#5F6AFF"/>
<path d="M43.3758 20.9398C42.2709 20.9398 41.2595 20.669 40.3416 20.1274C39.4407 19.5859 38.7183 18.7736 38.1743 17.6904C37.6474 16.5893 37.3839 15.1993 37.3839 13.5205C37.3839 11.8236 37.6389 10.4336 38.1488 9.35047C38.6758 8.26735 39.3897 7.46404 40.2906 6.94054C41.1916 6.39898 42.22 6.1282 43.3758 6.1282C44.7187 6.1282 45.9001 6.43509 46.92 7.04885C47.9569 7.66261 48.7728 8.52008 49.3678 9.62125C49.9797 10.7224 50.2857 12.0221 50.2857 13.5205C50.2857 15.0188 49.9797 16.3275 49.3678 17.4467C48.7728 18.5479 47.9569 19.4054 46.92 20.0191C45.9001 20.6329 44.7187 20.9398 43.3758 20.9398ZM35.8286 26L35.8286 6.29067H38.8628V9.70248L38.7608 13.5475L39.0158 17.3926V26H35.8286ZM43.0189 18.0425C43.7838 18.0425 44.4637 17.8619 45.0587 17.5009C45.6706 17.1399 46.1551 16.6164 46.5121 15.9304C46.869 15.2444 47.0475 14.4411 47.0475 13.5205C47.0475 12.5818 46.869 11.7784 46.5121 11.1105C46.1551 10.4246 45.6706 9.90105 45.0587 9.54001C44.4637 9.17897 43.7838 8.99846 43.0189 8.99846C42.2539 8.99846 41.5655 9.17897 40.9536 9.54001C40.3416 9.90105 39.8572 10.4246 39.5002 11.1105C39.1432 11.7784 38.9648 12.5818 38.9648 13.5205C38.9648 14.4411 39.1432 15.2444 39.5002 15.9304C39.8572 16.6164 40.3416 17.1399 40.9536 17.5009C41.5655 17.8619 42.2539 18.0425 43.0189 18.0425Z" fill="#5F6AFF"/>
<path d="M27.1128 20.6831V17.7721L26.9313 17.1522V12.058C26.9313 11.0697 26.6462 10.306 26.076 9.76693C25.5057 9.20989 24.6417 8.93137 23.4839 8.93137C22.7063 8.93137 21.9373 9.05716 21.177 9.30872C20.4339 9.56029 19.8032 9.91069 19.2848 10.3599L18.0147 7.90714C18.7578 7.31416 19.6391 6.87392 20.6586 6.58641C21.6954 6.28094 22.7668 6.1282 23.8727 6.1282C25.8772 6.1282 27.4238 6.63134 28.5125 7.6376C29.6184 8.6259 30.1714 10.1623 30.1714 12.2467V20.6831H27.1128ZM22.7581 20.8718C21.7213 20.8718 20.8141 20.6921 20.0365 20.3327C19.2589 19.9554 18.6541 19.4433 18.2221 18.7964C17.8073 18.1315 17.6 17.3858 17.6 16.5592C17.6 15.7506 17.7814 15.0229 18.1443 14.376C18.5245 13.7291 19.1379 13.217 19.9847 12.8396C20.8314 12.4623 21.9546 12.2736 23.3543 12.2736H27.372V14.5108H23.5876C22.4817 14.5108 21.7386 14.6994 21.3584 15.0768C20.9783 15.4362 20.7882 15.8854 20.7882 16.4245C20.7882 17.0354 21.0215 17.5206 21.488 17.88C21.9546 18.2393 22.6026 18.419 23.4321 18.419C24.227 18.419 24.9355 18.2303 25.5576 17.853C26.1969 17.4756 26.6549 16.9186 26.9313 16.1819L27.4757 18.2034C27.1646 19.0479 26.603 19.7038 25.7908 20.171C24.9959 20.6382 23.9851 20.8718 22.7581 20.8718Z" fill="#5F6AFF"/>
<path d="M7.6038 6.40984C8.67453 6.40984 9.62814 6.63302 10.4646 7.07938C11.3179 7.52573 11.9871 8.21312 12.4722 9.14154C12.9574 10.0521 13.2 11.2305 13.2 12.6767V20.8718H10.0631V13.1052C10.0631 11.8375 9.77871 10.8913 9.20989 10.2664C8.65779 9.64146 7.87985 9.32901 6.87605 9.32901C6.13992 9.32901 5.48745 9.4897 4.91863 9.81108C4.34981 10.1325 3.90646 10.6145 3.58859 11.2573C3.28745 11.8822 3.13688 12.6767 3.13688 13.6408V20.8718H0V1H3.13688V10.4271L2.45932 9.24867C2.92776 8.3381 3.60532 7.64179 4.49201 7.15972C5.39544 6.6598 6.4327 6.40984 7.6038 6.40984Z" fill="#5F6AFF"/>
<path d="M132.911 20.9639L132.974 21.1218H133.144H135.76H135.933L135.994 20.9609L140.165 10.0262L144.286 20.96L144.347 21.1218H144.52H147.137H147.315L147.373 20.9534L154.236 1.08162L154.351 0.75H154H151.554H151.376L151.318 0.918926L145.8 17.0135L141.598 5.55832L141.538 5.39442H141.363H139.059H138.886L138.825 5.55662L134.478 17.1464L131.678 9.96846L131.616 9.80931H131.445H128.857H128.489L128.625 10.1514L132.911 20.9639Z" fill="#5F6AFF" stroke="#5F6AFF" stroke-width="0.5"/>
</svg>
