<svg width="122" height="64" viewBox="0 0 122 64" fill="none" xmlns="http://www.w3.org/2000/svg">
<rect y="7" width="122" height="50" rx="25" fill="#EB5757"/>
<path d="M54.1941 23.5691C53.7631 23.5691 53.3497 23.7403 53.045 24.045C52.7403 24.3498 52.5691 24.7631 52.569 25.1941C52.5691 25.6251 52.7403 26.0384 53.045 26.3431L58.7019 32L53.045 37.6569C52.7403 37.9616 52.5691 38.3749 52.569 38.8059C52.5691 39.2369 52.7403 39.6502 53.045 39.955C53.3497 40.2597 53.7631 40.4309 54.1941 40.4309C54.625 40.4309 55.0384 40.2597 55.3431 39.955L61 34.2981L66.6568 39.955C66.9616 40.2597 67.3749 40.4309 67.8059 40.4309C68.2368 40.4309 68.6502 40.2597 68.9549 39.955C69.2596 39.6502 69.4309 39.2369 69.4309 38.8059C69.4309 38.3749 69.2597 37.9616 68.9549 37.6569L63.298 32L68.9549 26.3431C69.2597 26.0384 69.4309 25.6251 69.4309 25.1941C69.4309 24.7631 69.2596 24.3498 68.9549 24.045C68.6502 23.7403 68.2368 23.5691 67.8059 23.5691C67.3749 23.5691 66.9616 23.7403 66.6568 24.045L61 29.7019L55.3431 24.045C55.0384 23.7403 54.625 23.5691 54.1941 23.5691Z" fill="white" stroke="white" stroke-width="0.5"/>
</svg>
