<svg width="123" height="50" viewBox="0 0 123 50" fill="none" xmlns="http://www.w3.org/2000/svg">
<rect width="123" height="50" rx="25" fill="#FF9F1C"/>
<path fill-rule="evenodd" clip-rule="evenodd" d="M69.6666 16.6676C70.0515 16.2861 70.571 16.0714 71.1129 16.0699C71.6548 16.0684 72.1755 16.2802 72.5625 16.6596C72.9495 17.039 73.1716 17.5554 73.1808 18.0972C73.19 18.6391 72.9856 19.1628 72.6118 19.5551L61.6338 33.2776C61.4452 33.4808 61.2174 33.6439 60.9643 33.7571C60.7112 33.8703 60.4378 33.9313 60.1605 33.9364C59.8833 33.9416 59.6078 33.8907 59.3507 33.787C59.0935 33.6832 58.8599 33.5287 58.6638 33.3326L51.3901 26.0561C51.1875 25.8673 51.0249 25.6396 50.9122 25.3866C50.7995 25.1336 50.7388 24.8605 50.734 24.5835C50.7291 24.3066 50.78 24.0315 50.8838 23.7747C50.9875 23.5179 51.1419 23.2846 51.3377 23.0887C51.5336 22.8929 51.7669 22.7385 52.0237 22.6348C52.2805 22.531 52.5556 22.4801 52.8325 22.485C53.1095 22.4899 53.3826 22.5505 53.6356 22.6632C53.8886 22.7759 54.1163 22.9385 54.3051 23.1411L60.0636 28.8969L69.6143 16.7281C69.6314 16.7068 69.6498 16.6866 69.6693 16.6676H69.6666Z" fill="white"/>
</svg>
