<svg width="25" height="24" viewBox="0 0 25 24" fill="none" xmlns="http://www.w3.org/2000/svg">
<g clip-path="url(#clip0_50_920)">
<path fill-rule="evenodd" clip-rule="evenodd" d="M0.383789 12C0.383789 8.8174 1.66084 5.76516 3.93401 3.51472C6.20718 1.26428 9.29026 0 12.505 0C15.7197 0 18.8028 1.26428 21.076 3.51472C23.3492 5.76516 24.6262 8.8174 24.6262 12C24.6262 15.1826 23.3492 18.2348 21.076 20.4853C18.8028 22.7357 15.7197 24 12.505 24C9.29026 24 6.20718 22.7357 3.93401 20.4853C1.66084 18.2348 0.383789 15.1826 0.383789 12ZM11.7474 1.6155C10.7323 1.9215 9.7247 2.8455 8.88833 4.398C8.67167 4.8 8.47015 5.238 8.28985 5.706C9.35803 5.9415 10.5202 6.0915 11.7474 6.1365V1.6155ZM6.82167 5.3085C6.19837 5.11024 5.5915 4.86451 5.00652 4.5735C5.99353 3.59657 7.16536 2.82181 8.455 2.2935C8.11506 2.734 7.81251 3.2016 7.55046 3.6915C7.27192 4.21438 7.02895 4.75508 6.82318 5.31L6.82167 5.3085ZM5.70046 11.25H1.9247C2.06578 9.25465 2.78256 7.34136 3.98985 5.7375C4.70197 6.1245 5.49743 6.4605 6.36106 6.738C5.96821 8.21227 5.74607 9.72601 5.69894 11.25H5.70046ZM7.82167 7.1385C9.04591 7.419 10.3686 7.59 11.7474 7.6365V11.25H7.21712C7.27015 9.7695 7.48379 8.379 7.82167 7.1385ZM13.2626 7.635V11.25H17.7929C17.7478 9.86138 17.545 8.4822 17.1883 7.1385C15.9641 7.419 14.6414 7.59 13.2626 7.6365V7.635ZM7.21712 12.75H11.7474V16.3635C10.3686 16.4085 9.04591 16.581 7.82167 16.8615C7.46446 15.5179 7.26116 14.1387 7.21561 12.75H7.21712ZM13.2626 12.75V16.3635C14.6414 16.4085 15.9641 16.581 17.1883 16.8615C17.5262 15.621 17.7398 14.2305 17.7944 12.75H13.2626ZM8.28985 18.294C9.4268 18.0472 10.5841 17.9036 11.7474 17.865V22.386C10.7323 22.08 9.7247 21.156 8.88833 19.6035C8.66189 19.1801 8.46202 18.7433 8.28985 18.2955V18.294ZM8.45652 21.708C8.11595 21.2671 7.8129 20.799 7.55046 20.3085C7.2714 19.7857 7.02793 19.245 6.82167 18.69C6.19838 18.8883 5.59152 19.134 5.00652 19.425C5.99326 20.403 7.1651 21.1788 8.455 21.708H8.45652ZM6.36106 17.262C5.54078 17.5213 4.7469 17.8563 3.98985 18.2625C2.78302 16.6585 2.06677 14.7452 1.92621 12.75H5.69894C5.74555 14.274 5.96769 15.7878 6.36106 17.262ZM16.555 21.708C17.8443 21.1791 19.0156 20.4038 20.002 19.4265C19.4175 19.1356 18.8111 18.8899 18.1883 18.6915C17.982 19.246 17.7385 19.7862 17.4595 20.3085C17.1976 20.799 16.8951 21.2671 16.555 21.708ZM13.2626 17.8635C14.4898 17.9085 15.652 18.0585 16.7202 18.294C16.5383 18.762 16.3383 19.2 16.1217 19.602C15.2853 21.1545 14.2762 22.077 13.2626 22.3845V17.865V17.8635ZM18.6489 17.262C19.5126 17.5395 20.308 17.8755 21.0202 18.2625C22.227 16.6585 22.9432 14.7452 23.0838 12.75H19.3111C19.2645 14.274 19.0423 15.7878 18.6489 17.262ZM23.0838 11.25H19.3111C19.2644 9.72596 19.0423 8.21217 18.6489 6.738C19.4691 6.47835 20.263 6.14339 21.0202 5.7375C22.227 7.34149 22.9432 9.25479 23.0838 11.25ZM17.4595 3.6915C17.7277 4.1925 17.9732 4.7325 18.1898 5.3085C18.8121 5.11012 19.418 4.86439 20.002 4.5735C19.0154 3.59673 17.8441 2.82198 16.555 2.2935C16.8853 2.718 17.1883 3.189 17.4595 3.6915ZM16.7202 5.706C15.652 5.9415 14.4883 6.0915 13.2626 6.1365V1.6155C14.2777 1.9215 15.2853 2.8455 16.1217 4.398C16.3383 4.8 16.5398 5.238 16.7202 5.706Z" fill="#5F6AFF"/>
</g>
<defs>
<clipPath id="clip0_50_920">
<rect width="24.2424" height="24" fill="white" transform="translate(0.383789)"/>
</clipPath>
</defs>
</svg>
