<svg width="22" height="25" viewBox="0 0 22 25" fill="none" xmlns="http://www.w3.org/2000/svg">
<path fill-rule="evenodd" clip-rule="evenodd" d="M8.4993 0.5C8.30039 0.5 8.10962 0.579018 7.96897 0.71967C7.82832 0.860322 7.7493 1.05109 7.7493 1.25C7.7493 1.44891 7.82832 1.63968 7.96897 1.78033C8.10962 1.92098 8.30039 2 8.4993 2H9.2493V3.605C6.62198 3.98474 4.23596 5.34541 2.5713 7.41325C0.906648 9.48108 0.0868933 12.1026 0.276973 14.7504C0.467053 17.3983 1.65286 19.8758 3.59581 21.6847C5.53877 23.4935 8.09468 24.4994 10.7493 24.5C13.4072 24.5048 15.968 23.5014 17.9152 21.6923C19.8623 19.8832 21.0509 17.4029 21.2413 14.7519C21.4316 12.1008 20.6094 9.47618 18.9406 7.40748C17.2718 5.33877 14.8806 3.97991 12.2493 3.605V2H12.9993C13.1982 2 13.389 1.92098 13.5296 1.78033C13.6703 1.63968 13.7493 1.44891 13.7493 1.25C13.7493 1.05109 13.6703 0.860322 13.5296 0.71967C13.389 0.579018 13.1982 0.5 12.9993 0.5H8.4993ZM11.4993 8.9C11.4993 8.70109 11.4203 8.51032 11.2796 8.36967C11.139 8.22902 10.9482 8.15 10.7493 8.15C10.5504 8.15 10.3596 8.22902 10.219 8.36967C10.0783 8.51032 9.9993 8.70109 9.9993 8.9V13.25H5.4993C5.30039 13.25 5.10962 13.329 4.96897 13.4697C4.82832 13.6103 4.7493 13.8011 4.7493 14C4.7493 14.1989 4.82832 14.3897 4.96897 14.5303C5.10962 14.671 5.30039 14.75 5.4993 14.75H10.7493C10.9482 14.75 11.139 14.671 11.2796 14.5303C11.4203 14.3897 11.4993 14.1989 11.4993 14V8.9Z" fill="#5F6AFF"/>
</svg>
